<?xml version="1.0" encoding="UTF-8"?>
<svg id="Calque_2" data-name="Calque 2" xmlns="http://www.w3.org/2000/svg" viewBox="0 0 177.49 231.34">
  <defs>
    <style>
      .cls-1 {
        fill: none;
      }

      .cls-1, .cls-2 {
        stroke-width: .5px;
      }

      .cls-1, .cls-2, .cls-3 {
        stroke: #1d1d1b;
        stroke-miterlimit: 10;
      }

      .cls-2 {
        fill: #00a19a;
      }

      .cls-3 {
        fill: #fff;
      }
    </style>
  </defs>
  <g id="Calque_6" data-name="Calque 6">
    <path class="cls-2" d="M169.09,50.53C146.96,8.72,105.97,1.94,101.74,1.24c-9.19-1.52-29.84-2.77-52.84,8.26-8.17,3.92-25.95,14.28-38.06,36.65C-6.66,78.42,2,111.17,5.54,119.3c24.52,56.21,86.45,111.7,86.45,111.7,0,0,46.61-43.61,75.94-101.49,11.42-22.54,12.92-56.76,1.16-78.98Z"/>
    <circle class="cls-3" cx="88.74" cy="85.59" r="68.52"/>
    <path d="M63.74,89.19c.75,1.73,2.02,2.67,3.99,2.36-.69,5.13-6.28,8.6-13.77,8.73-7.78,.13-13.7-3.33-14.46-8.06,1.32-.86,2.48-1.62,3.65-2.38,.31,.52,.61,1.49,.95,1.5,2.96,.12,5.93,.07,8.84,.07,.16-.42,.3-.63,.3-.84,.02-7.57,.03-15.14,0-22.71,0-.31-.41-.63-.62-.94-.16-.7-.48-1.41-.45-2.1,.04-1.01-.02-2.4,.58-2.92,.99-.87,2.05-.24,2.82,.92,.44,.66,1.22,1.32,1.96,1.51,4.1,1.08,8.08,.66,11.79-1.47,5.11-2.93,10.37-4.93,16.43-3.6,1.56,.34,2.43-.96,1.49-2.53-1.96-3.28-.01-5.61,1.51-8.44,1.57,2.83,3.35,5.2,1.5,8.47-.93,1.64,.03,2.86,1.75,2.48,5.88-1.29,11.07,.58,16.01,3.45,3.19,1.86,6.59,2.51,10.18,2.04,1.63-.22,3.55-.05,4.29-2.31,.14-.43,1.81-.75,2.5-.46,.52,.22,1.06,1.97,.8,2.21-1.72,1.65-.36,3.04,.14,4.51-.52-.55-1.03-1.1-1.61-1.72v24.27h10.03c-.2-1.07-.36-1.95-.53-2.83,.96,1.53,1.31,3.83,4.15,2.95,.2,2.25-.89,3.69-2.23,4.94-5.62,5.26-18.17,5.28-23.66-.06-1.16-1.13-1.81-2.79-2.69-4.21,.31,.04,.61,.08,.92,.12,1.12-.89,2.25-1.78,3.37-2.67v1.78h10.04c0-8.13,0-16.08-.02-24.04,0-.15-.36-.3-.56-.45,.12-1.44-.35-2.04-1.87-1.44-5.05,1.99-9.96,1.56-14.99-.44-5.06-2.01-10.28-2.64-15.34,.93,.45,.39,.86,.75,1.49,1.3-.87,.44-1.58,.8-1.95,.98,0,8.69,0,17.21,0,25.73,0,1.46,.03,2.92,.05,4.38,0,.38-.13,.87,.06,1.13,1.34,1.92,2.66,3.85,4.17,5.63,.36,.43,1.4,.35,2.14,.38,1.53,.07,3.4-.49,4.54,.19,2.32,1.38,4.27,3.4,6.33,5.2,.21,.18,.13,.69,.21,1.25h-38.25c-.08-.17-.24-.34-.2-.42,.4-.8,.67-2.09,1.27-2.28,2.54-.78,2.98-4.97,6.55-3.96,.64,.18,1.43-.15,2.06,.05,3.22,1.02,4.48-1.85,6.11-3.4,1.04-.99,1.24-3.19,1.26-4.85,.11-9.6,.05-19.19,.05-29.06-.22-.11-.9-.42-1.86-.87,.62-.54,1.08-.94,1.98-1.72-2.22-.74-4.21-1.94-6.2-1.94-3.08-.01-6.35,.3-9.22,1.35-5.13,1.88-10.09,2.43-15.25,.43-.48-.18-1.11,.04-1.67,.08,.09,.49,.19,.98,.28,1.46-.39,.41-1.11,.81-1.11,1.22-.08,7.14-.07,14.29-.06,21.43,0,.58,.2,1.17,.3,1.76h10.01c-.11-.8-.21-1.45-.3-2.11Z"/>
    <line class="cls-1" x1="42.81" y1="90.72" x2="53.55" y2="66.1"/>
    <line class="cls-1" x1="64.49" y1="91.17" x2="53.72" y2="66.49"/>
    <line class="cls-1" x1="135.26" y1="91.17" x2="124.39" y2="65.71"/>
    <line class="cls-1" x1="112.94" y1="91.14" x2="123.68" y2="66.52"/>
  </g>
</svg>